<?xml version="1.0" encoding="utf-8"?>
<!-- Generator: Adobe Illustrator 22.0.1, SVG Export Plug-In . SVG Version: 6.00 Build 0)  -->
<svg version="1.1" id="レイヤー_1" xmlns="http://www.w3.org/2000/svg" xmlns:xlink="http://www.w3.org/1999/xlink" x="0px"
	 y="0px" viewBox="0 0 691 691" style="enable-background:new 0 0 691 691;" xml:space="preserve">
<style type="text/css">
	.st0{fill:url(#rect3845_1_);}
	.st1{fill:url(#path2315_1_);}
	.st2{fill:#DCDCDC;}
	.st3{fill:url(#rect2190_1_);}
	.st4{fill:#252525;}
	.st5{fill:#8F8F8F;}
	.st6{fill:#4C4C4C;}
</style>
<g id="svg2" xmlns:cc="http://creativecommons.org/ns#" xmlns:dc="http://purl.org/dc/elements/1.1/" xmlns:rdf="http://www.w3.org/1999/02/22-rdf-syntax-ns#" xmlns:svg="http://www.w3.org/2000/svg">
	<g id="g4415" transform="translate(39,39)">
		
			<linearGradient id="rect3845_1_" gradientUnits="userSpaceOnUse" x1="626.152" y1="-171.5658" x2="204.7081" y2="546.3082" gradientTransform="matrix(1.1001 0 0 1.1001 -177.0779 145.6903)">
			<stop  offset="0" style="stop-color:#1C95E4"/>
			<stop  offset="1" style="stop-color:#FFFFFF"/>
		</linearGradient>
		<rect id="rect3845" x="-38.8" y="-39" class="st0" width="690.8" height="690.8"/>
		
			<linearGradient id="path2315_1_" gradientUnits="userSpaceOnUse" x1="96.8224" y1="38.7228" x2="189.1322" y2="344.7837" gradientTransform="matrix(0.7417 0 0 0.8738 331.4945 276.34)">
			<stop  offset="0" style="stop-color:#075B15"/>
			<stop  offset="1" style="stop-color:#022608"/>
		</linearGradient>
		<path id="path2315" class="st1" d="M485.6,140.8c-56.5,80.4-86.8,147.2-170.1,241.5c26.2-12.2,51.7-21.8,76.7-28.7
			C365,390.5,333.8,429.3,289,474.3c33-13.8,64.8-23.9,95.7-30.8c-26.8,34-57.6,69.6-100.5,110.6c31.5-12.4,62.2-22.3,92-28.9
			c-20.2,24.5-42.5,50-70.7,77.8c-15.9,12.2-33.1,26-52.8,43.1c79.4,6.4,161.1,3.2,230.9,3.2c56.3,0.5,104.4,1.6,163.2,2.8h5v-36.7
			c-10.6-6.9-21.4-13.8-32.1-20.7c10.6,1.6,21.3,3.4,32.1,5.5v-32.4c-18.2-17-36.7-33.1-54.9-50.1c18.2,2.3,36.3,5.5,54.9,9.2v-29.4
			c-20.9-20.2-42.2-39-63.3-59c20.7,2.8,41.6,6.9,63.3,11.7v-19.7c-28.7-29.8-57.9-56-86.6-85.8c28.3,3.4,56.5,9.6,86.6,17.7v-5.8
			C596.2,285.9,536.1,240.2,485.6,140.8z"/>
		<path id="rect2293" class="st2" d="M15.4,320c-18.6,0-36.7,2.3-54.2,7.4v77.8C44.7,389.3,178.6,418,193.1,450l81.3-17.7
			C261.1,408.4,132.3,319.6,15.4,320z"/>
		
			<linearGradient id="rect2190_1_" gradientUnits="userSpaceOnUse" x1="660.7227" y1="324.5671" x2="-339.3241" y2="478.2748" gradientTransform="matrix(1.1001 0 0 1.1001 -133.0722 145.3658)">
			<stop  offset="0" style="stop-color:#6F8491"/>
			<stop  offset="1" style="stop-color:#14153B"/>
		</linearGradient>
		<path id="rect2190" class="st3" d="M362.3,389.1c-28.3,0-59.5,3.7-93.7,11.9l-307.4,81.9v168.5l308.5,0.2l350.6-0.2
			C619.6,565.4,561.1,388.5,362.3,389.1L362.3,389.1z"/>
		<path id="rect2286" class="st4" d="M179.6,609.5c-18.6,0-39.5,0.5-62.7,2.7l-155.4,8v31l366.9,0.2
			C318.5,636.6,280.5,610.4,179.6,609.5L179.6,609.5z"/>
		<path id="rect2265" class="st5" d="M41.1,493.4C388,418.8,475.7,426.8,531.2,478l-9.6,3.2c-53.7-40-108.1-57.6-467.2,18.2
			L41.1,493.4z"/>
		<path id="path2276" class="st5" d="M46.2,522.8c328.3-54.9,405.2-75.1,466.5-27.6l-2.8,7.4C440.8,457.8,393,476,57.4,530.2
			C57.4,530.3,46.2,522.8,46.2,522.8z"/>
		
			<ellipse id="path2248" transform="matrix(0.8656 -0.5007 0.5007 0.8656 -181.088 338.088)" class="st6" cx="539.3" cy="506.4" rx="33.5" ry="47"/>
		
			<ellipse id="path2236" transform="matrix(0.8656 -0.5007 0.5007 0.8656 -179.484 339.0546)" class="st5" cx="541.9" cy="503.9" rx="28.2" ry="39.5"/>
	</g>
</g>
<g id="レイヤー_2_1_">
	
		<image style="overflow:visible;enable-background:new    ;" width="401" height="610" xlink:href="base.png"  transform="matrix(1 0 0 1 20 19)">
	</image>
</g>
</svg>
